<?xml version="1.0" encoding="UTF-8"?>
<svg version="1.1" xmlns="http://www.w3.org/2000/svg" width="100" height="32">
<path d="M0 0 C1.61261719 0.00386719 1.61261719 0.00386719 3.2578125 0.0078125 C4.32773437 0.00523438 5.39765625 0.00265625 6.5 0 C9.3828125 0.1328125 9.3828125 0.1328125 12.3828125 1.1328125 C14.38242814 1.17202065 16.38330614 1.17724597 18.3828125 1.1328125 C18.8778125 2.6178125 18.8778125 2.6178125 19.3828125 4.1328125 C21.39789608 4.86605046 21.39789608 4.86605046 23.3828125 5.1328125 C24.6256672 10.67502381 24.29381479 15.89171813 23.9453125 21.5078125 C23.89310547 22.43464844 23.84089844 23.36148437 23.78710938 24.31640625 C23.65825372 26.58895151 23.52332939 28.86096349 23.3828125 31.1328125 C7.95868437 31.9793639 -7.20188266 32.18643481 -22.6171875 31.1328125 C-22.64610699 26.84115988 -22.66395868 22.54953214 -22.6796875 18.2578125 C-22.68806641 17.03449219 -22.69644531 15.81117187 -22.70507812 14.55078125 C-22.70830078 13.38417969 -22.71152344 12.21757812 -22.71484375 11.015625 C-22.72008057 9.93684082 -22.72531738 8.85805664 -22.73071289 7.74658203 C-22.6171875 5.1328125 -22.6171875 5.1328125 -21.6171875 3.1328125 C-16.33177172 1.2215684 -10.93145136 0.9379721 -5.3671875 1.16015625 C-2.91861782 1.12189735 -2.7352722 0.13880486 0 0 Z " fill="#55595D" transform="translate(22.6171875,-0.1328125)"/>
<path d="M0 0 C1.61261719 0.00386719 1.61261719 0.00386719 3.2578125 0.0078125 C4.32773437 0.00523438 5.39765625 0.00265625 6.5 0 C9.3828125 0.1328125 9.3828125 0.1328125 12.3828125 1.1328125 C14.38242814 1.17202065 16.38330614 1.17724597 18.3828125 1.1328125 C18.8778125 2.6178125 18.8778125 2.6178125 19.3828125 4.1328125 C21.39789608 4.86605046 21.39789608 4.86605046 23.3828125 5.1328125 C24.6256672 10.67502381 24.29381479 15.89171813 23.9453125 21.5078125 C23.89310547 22.43464844 23.84089844 23.36148437 23.78710938 24.31640625 C23.65825372 26.58895151 23.52332939 28.86096349 23.3828125 31.1328125 C7.95868437 31.9793639 -7.20188266 32.18643481 -22.6171875 31.1328125 C-22.64610699 26.84115988 -22.66395868 22.54953214 -22.6796875 18.2578125 C-22.68806641 17.03449219 -22.69644531 15.81117187 -22.70507812 14.55078125 C-22.70830078 13.38417969 -22.71152344 12.21757812 -22.71484375 11.015625 C-22.72008057 9.93684082 -22.72531738 8.85805664 -22.73071289 7.74658203 C-22.6171875 5.1328125 -22.6171875 5.1328125 -21.6171875 3.1328125 C-16.33177172 1.2215684 -10.93145136 0.9379721 -5.3671875 1.16015625 C-2.91861782 1.12189735 -2.7352722 0.13880486 0 0 Z M-1.6171875 1.1328125 C-2.2771875 2.4528125 -2.9371875 3.7728125 -3.6171875 5.1328125 C-4.2771875 5.1328125 -4.9371875 5.1328125 -5.6171875 5.1328125 C-5.6171875 4.4728125 -5.6171875 3.8128125 -5.6171875 3.1328125 C-8.5871875 3.1328125 -11.5571875 3.1328125 -14.6171875 3.1328125 C-14.6171875 3.7928125 -14.6171875 4.4528125 -14.6171875 5.1328125 C-17.5871875 4.6378125 -17.5871875 4.6378125 -20.6171875 4.1328125 C-20.6171875 6.4428125 -20.6171875 8.7528125 -20.6171875 11.1328125 C-13.6871875 11.6278125 -13.6871875 11.6278125 -6.6171875 12.1328125 C-7.6071875 13.6178125 -7.6071875 13.6178125 -8.6171875 15.1328125 C-8.97036711 17.27910707 -8.97036711 17.27910707 -8.9296875 19.5703125 C-8.94644531 20.33214844 -8.96320312 21.09398438 -8.98046875 21.87890625 C-8.71288297 24.65112854 -8.71288297 24.65112854 -5.6171875 28.1328125 C-10.5671875 28.4628125 -15.5171875 28.7928125 -20.6171875 29.1328125 C-20.6171875 29.4628125 -20.6171875 29.7928125 -20.6171875 30.1328125 C0.40401073 31.30674759 0.40401073 31.30674759 21.3828125 30.1328125 C21.3828125 29.8028125 21.3828125 29.4728125 21.3828125 29.1328125 C18.0828125 28.8028125 14.7828125 28.4728125 11.3828125 28.1328125 C12.3728125 26.8128125 13.3628125 25.4928125 14.3828125 24.1328125 C14.815702 21.87935841 14.815702 21.87935841 14.6953125 19.5703125 C14.68951172 18.42369141 14.68951172 18.42369141 14.68359375 17.25390625 C14.49649946 14.83492501 14.49649946 14.83492501 12.3828125 12.1328125 C16.8378125 11.6378125 16.8378125 11.6378125 21.3828125 11.1328125 C21.3828125 9.1528125 21.3828125 7.1728125 21.3828125 5.1328125 C20.3928125 5.1328125 19.4028125 5.1328125 18.3828125 5.1328125 C18.3828125 4.4728125 18.3828125 3.8128125 18.3828125 3.1328125 C16.7328125 3.1328125 15.0828125 3.1328125 13.3828125 3.1328125 C13.3828125 3.7928125 13.3828125 4.4528125 13.3828125 5.1328125 C12.3928125 5.1328125 11.4028125 5.1328125 10.3828125 5.1328125 C9.7228125 3.8128125 9.0628125 2.4928125 8.3828125 1.1328125 C5.0828125 1.1328125 1.7828125 1.1328125 -1.6171875 1.1328125 Z " fill="#13211E" transform="translate(22.6171875,-0.1328125)"/>
<path d="M0 0 C3.3 0 6.6 0 10 0 C10.66 1.32 11.32 2.64 12 4 C12.99 4 13.98 4 15 4 C15 3.34 15 2.68 15 2 C16.65 2 18.3 2 20 2 C20 2.66 20 3.32 20 4 C20.99 4 21.98 4 23 4 C23 5.98 23 7.96 23 10 C21.41753293 10.08153933 19.83383727 10.13943557 18.25 10.1875 C17.36828125 10.22230469 16.4865625 10.25710938 15.578125 10.29296875 C12.51413632 9.94478822 11.38118356 8.87681881 9 7 C3.53591317 6.35124425 3.53591317 6.35124425 -1.265625 8.51171875 C-4.80772866 10.43963517 -7.89576705 10.33367472 -11.8125 10.1875 C-12.85180664 10.16719727 -12.85180664 10.16719727 -13.91210938 10.14648438 C-15.60841265 10.11138845 -17.30431136 10.05758943 -19 10 C-19 7.69 -19 5.38 -19 3 C-16.03 3.495 -16.03 3.495 -13 4 C-13 3.34 -13 2.68 -13 2 C-10.03 2 -7.06 2 -4 2 C-4 2.66 -4 3.32 -4 4 C-3.34 4 -2.68 4 -2 4 C-1.34 2.68 -0.68 1.36 0 0 Z " fill="#82878C" transform="translate(21,1)"/>
<path d="M0 0 C3.96 0 7.92 0 12 0 C12 6.6 12 13.2 12 20 C-0.375 20.495 -0.375 20.495 -13 21 C-13 20.67 -13 20.34 -13 20 C-12.16855469 19.91363281 -11.33710938 19.82726562 -10.48046875 19.73828125 C-9.39378906 19.59777344 -8.30710937 19.45726563 -7.1875 19.3125 C-6.10855469 19.18488281 -5.02960937 19.05726562 -3.91796875 18.92578125 C-0.85159592 18.24671078 -0.85159592 18.24671078 0.8671875 15.703125 C1.98910339 13.02600157 2.37750969 11.31292854 2.3125 8.4375 C2.30863281 7.69371094 2.30476563 6.94992188 2.30078125 6.18359375 C2.06258286 3.59020066 2.06258286 3.59020066 0 0 Z " fill="#0D1C19" transform="translate(34,11)"/>
<path d="M0 0 C3.31645168 2.6675807 6.67838034 5.73195485 7.30078125 10.12109375 C7.30658203 11.26771484 7.30658203 11.26771484 7.3125 12.4375 C7.32925781 13.19933594 7.34601562 13.96117187 7.36328125 14.74609375 C7 17 7 17 4 21 C7.3 21.33 10.6 21.66 14 22 C14 22.33 14 22.66 14 23 C-0.09831684 23.83871007 -13.91229872 24.06849543 -28 23 C-28 22.67 -28 22.34 -28 22 C-23.05 21.67 -18.1 21.34 -13 21 C-13.99 19.68 -14.98 18.36 -16 17 C-16.8582841 13.13056918 -16.71810089 9.48297464 -14.98046875 5.89453125 C-11.18352479 0.3310333 -6.81168574 -1.21067071 0 0 Z M-12.0625 5.5625 C-14.30625709 9.54335936 -14.73540053 11.50588566 -14 16 C-12.20437595 18.75329021 -10.94745078 20.52627461 -8 22 C-3.81855989 22.39447548 -1.69053952 22.45035186 1.875 20.125 C4.78710658 17.21289342 4.96068305 16.3997223 5.375 12.1875 C5.30791111 8.83915436 4.97938747 7.96808382 3.0625 5 C-0.49515348 2.67663446 -2.65256287 2.20146872 -6.83984375 2.453125 C-9.36034386 2.925009 -9.36034386 2.925009 -12.0625 5.5625 Z " fill="#2D3333" transform="translate(30,7)"/>
<path d="M0 0 C0.99 0 1.98 0 3 0 C3 1.32 3 2.64 3 4 C8.445 3.505 8.445 3.505 14 3 C14 2.34 14 1.68 14 1 C13.34 0.67 12.68 0.34 12 0 C21.9 0 31.8 0 42 0 C42 1.65 42 3.3 42 5 C40.41753293 5.08153933 38.83383727 5.13943557 37.25 5.1875 C36.36828125 5.22230469 35.4865625 5.25710937 34.578125 5.29296875 C31.51413632 4.94478822 30.38118356 3.87681881 28 2 C22.53591317 1.35124425 22.53591317 1.35124425 17.734375 3.51171875 C14.19227134 5.43963517 11.10423295 5.33367472 7.1875 5.1875 C6.14819336 5.16719727 6.14819336 5.16719727 5.08789062 5.14648438 C3.39158735 5.11138845 1.69568864 5.05758943 0 5 C0 3.35 0 1.7 0 0 Z " fill="#A5A5AD" transform="translate(2,6)"/>
<path d="M0 0 C1.61261719 0.00386719 1.61261719 0.00386719 3.2578125 0.0078125 C4.32773437 0.00523438 5.39765625 0.00265625 6.5 0 C9.3828125 0.1328125 9.3828125 0.1328125 12.3828125 1.1328125 C14.38242814 1.17202065 16.38330614 1.17724597 18.3828125 1.1328125 C18.8778125 2.6178125 18.8778125 2.6178125 19.3828125 4.1328125 C21.39789608 4.86605046 21.39789608 4.86605046 23.3828125 5.1328125 C23.8778125 8.1028125 23.8778125 8.1028125 24.3828125 11.1328125 C23.3928125 11.1328125 22.4028125 11.1328125 21.3828125 11.1328125 C21.3828125 9.1528125 21.3828125 7.1728125 21.3828125 5.1328125 C20.3928125 5.1328125 19.4028125 5.1328125 18.3828125 5.1328125 C18.3828125 4.4728125 18.3828125 3.8128125 18.3828125 3.1328125 C16.7328125 3.1328125 15.0828125 3.1328125 13.3828125 3.1328125 C13.3828125 3.7928125 13.3828125 4.4528125 13.3828125 5.1328125 C12.3928125 5.1328125 11.4028125 5.1328125 10.3828125 5.1328125 C9.7228125 4.1428125 9.0628125 3.1528125 8.3828125 2.1328125 C6.01996386 1.65490732 6.01996386 1.65490732 3.3828125 1.7578125 C2.4959375 1.75007812 1.6090625 1.74234375 0.6953125 1.734375 C-0.0678125 1.86585938 -0.8309375 1.99734375 -1.6171875 2.1328125 C-2.6071875 3.6178125 -2.6071875 3.6178125 -3.6171875 5.1328125 C-4.2771875 5.1328125 -4.9371875 5.1328125 -5.6171875 5.1328125 C-5.6171875 4.4728125 -5.6171875 3.8128125 -5.6171875 3.1328125 C-7.2671875 3.1328125 -8.9171875 3.1328125 -10.6171875 3.1328125 C-10.9471875 3.7928125 -11.2771875 4.4528125 -11.6171875 5.1328125 C-11.6171875 4.4728125 -11.6171875 3.8128125 -11.6171875 3.1328125 C-12.6071875 3.1328125 -13.5971875 3.1328125 -14.6171875 3.1328125 C-14.6171875 3.7928125 -14.6171875 4.4528125 -14.6171875 5.1328125 C-17.5871875 4.6378125 -17.5871875 4.6378125 -20.6171875 4.1328125 C-20.6171875 6.4428125 -20.6171875 8.7528125 -20.6171875 11.1328125 C-21.2771875 11.1328125 -21.9371875 11.1328125 -22.6171875 11.1328125 C-22.7421875 5.3828125 -22.7421875 5.3828125 -21.6171875 3.1328125 C-16.33177172 1.2215684 -10.93145136 0.9379721 -5.3671875 1.16015625 C-2.91861782 1.12189735 -2.7352722 0.13880486 0 0 Z " fill="#1F2C29" transform="translate(22.6171875,-0.1328125)"/>
<path d="M0 0 C1.8125 1.1875 1.8125 1.1875 3 3 C3.4334014 5.88934264 3.42525784 7.35092224 1.8125 9.8125 C-0.64907776 11.42525784 -2.11065736 11.4334014 -5 11 C-6.8125 9.8125 -6.8125 9.8125 -8 8 C-8.4334014 5.11065736 -8.42525784 3.64907776 -6.8125 1.1875 C-4.35092224 -0.42525784 -2.88934264 -0.4334014 0 0 Z " fill="#0C1E1A" transform="translate(28,14)"/>
<path d="M0 0 C0.33 0 0.66 0 1 0 C1.375 7.5 1.375 7.5 -2 12 C1.3 12.33 4.6 12.66 8 13 C8 13.33 8 13.66 8 14 C-6.09831684 14.83871007 -19.91229872 15.06849543 -34 14 C-34 13.67 -34 13.34 -34 13 C-28.72 13 -23.44 13 -18 13 C-18 12.34 -18 11.68 -18 11 C-17.484375 11.165 -16.96875 11.33 -16.4375 11.5 C-13.10784527 12.1830061 -10.39545558 12.35741638 -7 12 C-4.18668622 9.60416349 -4.18668622 9.60416349 -2 7 C-1.34 7 -0.68 7 0 7 C0 4.69 0 2.38 0 0 Z " fill="#404748" transform="translate(36,16)"/>
<path d="M0 0 C0.99 0 1.98 0 3 0 C3 1.32 3 2.64 3 4 C8.445 3.505 8.445 3.505 14 3 C14 2.34 14 1.68 14 1 C13.34 0.67 12.68 0.34 12 0 C14.31 0 16.62 0 19 0 C19.33 0.66 19.66 1.32 20 2 C15.78654502 5.11713854 12.2589095 5.37676791 7.1875 5.1875 C6.14819336 5.16719727 6.14819336 5.16719727 5.08789062 5.14648438 C3.39158735 5.11138845 1.69568864 5.05758943 0 5 C0 3.35 0 1.7 0 0 Z " fill="#9D9EA5" transform="translate(2,6)"/>
<path d="M0 0 C2.5625 0.3125 2.5625 0.3125 4.4375 1.5625 C5.5625 3.3125 5.5625 3.3125 5.25 5.5 C4.9096875 6.3971875 4.9096875 6.3971875 4.5625 7.3125 C3.9025 7.3125 3.2425 7.3125 2.5625 7.3125 C2.2325 6.3225 1.9025 5.3325 1.5625 4.3125 C0.5725 4.3125 -0.4175 4.3125 -1.4375 4.3125 C-2.0975 5.3025 -2.7575 6.2925 -3.4375 7.3125 C-4.0625 4.9375 -4.0625 4.9375 -4.4375 2.3125 C-2.4375 0.3125 -2.4375 0.3125 0 0 Z " fill="#081A16" transform="translate(25.4375,13.6875)"/>
<path d="M0 0 C3.3 0 6.6 0 10 0 C10.33 0.99 10.66 1.98 11 3 C7.04 3 3.08 3 -1 3 C-0.67 2.01 -0.34 1.02 0 0 Z " fill="#A4A5AC" transform="translate(21,1)"/>
<path d="M0 0 C1.8871875 0.0309375 1.8871875 0.0309375 3.8125 0.0625 C1.8125 3.0625 1.8125 3.0625 -0.28125 3.5390625 C-1.0753125 3.58804687 -1.869375 3.63703125 -2.6875 3.6875 C-6.06511268 3.88712241 -6.06511268 3.88712241 -9.1875 5.0625 C-8.375 3.125 -8.375 3.125 -7.1875 1.0625 C-4.43671116 0.14557039 -2.82801087 -0.04636083 0 0 Z " fill="#363E3F" transform="translate(26.1875,6.9375)"/>
<path d="M0 0 C2.31 0 4.62 0 7 0 C7 1.32 7 2.64 7 4 C4.69 4 2.38 4 0 4 C0 2.68 0 1.36 0 0 Z " fill="#1A3F42" transform="translate(6,6)"/>
<path d="M0 0 C1.65 0.33 3.3 0.66 5 1 C5 1.66 5 2.32 5 3 C2.69 3 0.38 3 -2 3 C-2.33 4.32 -2.66 5.64 -3 7 C-3 5.68 -3 4.36 -3 3 C-3.99 3 -4.98 3 -6 3 C-6 2.34 -6 1.68 -6 1 C-3.03 1.495 -3.03 1.495 0 2 C0 1.34 0 0.68 0 0 Z " fill="#687072" transform="translate(8,3)"/>
<path d="M0 0 C1.98 0 3.96 0 6 0 C6 0.66 6 1.32 6 2 C7.32 2.33 8.64 2.66 10 3 C10.33 4.98 10.66 6.96 11 9 C10.01 9 9.02 9 8 9 C8 7.02 8 5.04 8 3 C7.01 3 6.02 3 5 3 C5 2.34 5 1.68 5 1 C3.35 1 1.7 1 0 1 C0 0.67 0 0.34 0 0 Z " fill="#24322F" transform="translate(36,2)"/>
<path d="M0 0 C1.98 0.495 1.98 0.495 4 1 C3.67 2.32 3.34 3.64 3 5 C1.68 4.67 0.36 4.34 -1 4 C-0.67 2.68 -0.34 1.36 0 0 Z " fill="#304846" transform="translate(24,17)"/>
<path d="M0 0 C0.33 0 0.66 0 1 0 C1 2.31 1 4.62 1 7 C1.66 7 2.32 7 3 7 C3.66 8.32 4.32 9.64 5 11 C4.01 11 3.02 11 2 11 C-0.67927341 6.98108988 -0.15601248 4.75838077 0 0 Z " fill="#353B3D" transform="translate(14,16)"/>
<path d="M0 0 C0.53625 0.165 1.0725 0.33 1.625 0.5 C4.45886009 1.09660212 7.1119806 1.0656368 10 1 C10 1.33 10 1.66 10 2 C8.35 2 6.7 2 5 2 C5 2.99 5 3.98 5 5 C4.01 5 3.02 5 2 5 C1.34 3.35 0.68 1.7 0 0 Z " fill="#091210" transform="translate(31,0)"/>
<text x="68%" y="78%" font-size="20" text-anchor="middle" fill="black" font-weight="bold"  font-family="Pretendard">
        찰칵
</text>
</svg>
